# xmcd
#
# Track frame offsets: 
#        150
#        14320
#        28403
#        39598
#        57700
#        71615
#        84848
#        100718
#        110130
#        121815
#        135728
#        149438
#        164540
#        185933
#        201635
#        217330
#
# Disc length: 3068 seconds
#
# Revision: 0
# Processed by: cddbd v1.5.2PL0 Copyright (c) Steve Scherf et al.
# Submitted via: ExactAudioCopy v0.99pb3
#
DISCID=030bfa10
DTITLE=O Melhor Do Globo Rural - O Melhor Do Globo Rural - Disc 2
DYEAR=2007
DGENRE=Sertanejo
TTITLE0=Não Aprendi Dizer Adeus -  Juliano Cesar
TTITLE1=Ainda Ontem Chorei De Saudade  - João Mineiro and Mariano 
TTITLE2=Os Sinais Do Fim Do Mundo  - João Mulato and Douradinho 
TTITLE3=Chumbo Trocado  - Solevante and Soleny 
TTITLE4=Você Já Virou Saudade  - As Mineirinhas 
TTITLE5=Violeiro Marrudo  - Cacique and Pajé 
TTITLE6=Fonte De Desejos  - Renê and Ronaldo 
TTITLE7=A Volta Da Cunhada  - Teodoro and Sampaio 
TTITLE8=Espinho Na Cama  - Valderi and Mizael 
TTITLE9=A Noite Do Nosso Amor  - Roberto and Meirinho 
TTITLE10=Colcha De Retalhos  - As Marcianas 
TTITLE11=Peão Da Cidade  - Chrystian and Ralf 
TTITLE12=Memória Do Carreiro  - Pena Branca and Xavantinho 
TTITLE13=Seu Amor Ainda É Tudo  - João Mineiro and Mariano 
TTITLE14=Vai Meu Carro Velho  - Carlos Cesar E Cristiano 
TTITLE15=Cowboy Violeiro - Juliano Cesar
EXTD=
EXTT0=
EXTT1=
EXTT2=
EXTT3=
EXTT4=
EXTT5=
EXTT6=
EXTT7=
EXTT8=
EXTT9=
EXTT10=
EXTT11=
EXTT12=
EXTT13=
EXTT14=
EXTT15=
PLAYORDER=
